<svg width="206" height="49" viewBox="0 0 206 49" fill="none" xmlns="http://www.w3.org/2000/svg">
<g clip-path="url(#clip0_683_2)">
<rect width="206" height="49" fill="white"/>
<g clip-path="url(#clip1_683_2)">
<path d="M22.3602 38.2544C22.3602 38.2544 26.8837 34.4921 26.8837 34.1115C26.8837 33.7269 27.4727 28.3819 27.4727 28.3819L25.1809 24.2671L16.25 32.6691L22.3602 38.2544Z" fill="#F7591F"/>
<mask id="mask0_683_2" style="mask-type:luminance" maskUnits="userSpaceOnUse" x="15" y="8" width="21" height="29">
<path d="M15.2925 8.1123H35.7385V36.8322H15.2925V8.1123Z" fill="white"/>
</mask>
<g mask="url(#mask0_683_2)">
<path d="M25.217 36.6239C24.9766 36.6239 24.7362 36.5357 24.5559 36.3514C24.1873 35.9908 24.1833 35.3978 24.5439 35.0292C25.8981 33.6429 26.6434 31.8119 26.6434 29.8726C26.6434 27.9294 25.8941 26.0943 24.5319 24.708C24.5078 24.684 24.4798 24.6559 24.4557 24.6279L15.5689 15.7451C15.3926 15.5688 15.2925 15.3284 15.2925 15.08C15.2925 14.8276 15.3926 14.5912 15.5689 14.4149L21.4307 8.54911C21.7833 8.19652 22.4083 8.19652 22.7609 8.54911L33.9275 19.7157C36.2955 22.0837 36.2955 25.9341 33.9275 28.302L25.8821 36.3474C25.6978 36.5317 25.4574 36.6239 25.217 36.6239ZM25.822 23.3377C25.83 23.3418 25.834 23.3498 25.8421 23.3578C27.5729 25.1007 28.5225 27.4165 28.5225 29.8726C28.5225 30.2973 28.4945 30.718 28.4384 31.1307L32.5973 26.9718C34.232 25.3371 34.232 22.6807 32.5973 21.0459L22.0958 10.5444L17.5643 15.08L25.782 23.2977C25.794 23.3097 25.81 23.3217 25.822 23.3377Z" fill="#231F20"/>
</g>
<mask id="mask1_683_2" style="mask-type:luminance" maskUnits="userSpaceOnUse" x="15" y="22" width="15" height="18">
<path d="M15.2925 22.4722H29.384V39.9092H15.2925V22.4722Z" fill="white"/>
</mask>
<g mask="url(#mask1_683_2)">
<path d="M22.0958 39.745C21.8554 39.745 21.615 39.6528 21.4307 39.4685L15.5689 33.6068C15.3926 33.4305 15.2925 33.1901 15.2925 32.9417C15.2925 32.6933 15.3926 32.4529 15.5689 32.2766L24.4998 23.3457C24.7803 23.0652 25.205 22.9891 25.5656 23.1614C25.6297 23.1894 25.6938 23.2335 25.7539 23.2776C25.786 23.3016 25.814 23.3297 25.8421 23.3577C27.5729 25.1006 28.5225 27.4165 28.5225 29.8726C28.5225 32.3046 27.589 34.6044 25.8901 36.3433C25.8381 36.3954 25.782 36.4515 25.7219 36.5076L22.7609 39.4685C22.5766 39.6528 22.3362 39.745 22.0958 39.745ZM17.5643 32.9417L22.0958 37.4732L24.4117 35.1614C24.4638 35.1093 24.5038 35.0692 24.5399 35.0331C25.8982 33.6428 26.6434 31.8118 26.6434 29.8726C26.6434 28.2298 26.1065 26.6672 25.1209 25.3851L17.5643 32.9417Z" fill="#231F20"/>
</g>
</g>
<path d="M44.3703 34.6108C43.9203 34.6108 43.6803 34.2208 43.8603 33.8308L53.1903 13.6408C53.2803 13.4608 53.4303 13.3108 53.7003 13.3108H54.0003C54.3003 13.3108 54.4203 13.4608 54.5103 13.6408L63.7503 33.8308C63.9303 34.2208 63.6903 34.6108 63.2403 34.6108H60.6303C60.1803 34.6108 59.9703 34.4308 59.7603 34.0108L58.2903 30.7708H49.3203L47.8503 34.0108C47.7303 34.3108 47.4603 34.6108 46.9803 34.6108H44.3703ZM50.7903 27.4408H56.8203L53.8203 20.8408H53.7303L50.7903 27.4408ZM65.6429 33.9508V14.2708C65.6429 13.9408 65.9729 13.6108 66.3029 13.6108H68.7329C69.0629 13.6108 69.3929 13.9408 69.3929 14.2708V33.9508C69.3929 34.3108 69.0629 34.6108 68.7329 34.6108H66.3029C65.9729 34.6108 65.6429 34.3108 65.6429 33.9508ZM73.2894 33.9508V14.2708C73.2894 13.9408 73.6194 13.6108 73.9494 13.6108H76.3794C76.7094 13.6108 77.0394 13.9408 77.0394 14.2708V33.9508C77.0394 34.3108 76.7094 34.6108 76.3794 34.6108H73.9494C73.6194 34.6108 73.2894 34.3108 73.2894 33.9508Z" fill="#F7591F"/>
<path d="M92.0129 23.8408V23.9908C93.7529 24.5908 95.6129 26.0008 95.6129 28.8208C95.6129 32.1808 92.7329 34.6108 89.0729 34.6108H81.8129C81.4829 34.6108 81.2429 34.3408 81.2429 34.0408V14.1808C81.2429 13.8808 81.4829 13.6108 81.8129 13.6108H88.6829C92.2529 13.6108 95.0129 16.0108 95.0129 19.1608C95.0129 21.4108 93.5729 23.0608 92.0129 23.8408ZM85.1129 22.4308H88.3829C89.9129 22.4308 90.9029 21.2308 90.9029 19.7308C90.9029 18.2308 89.9129 17.1808 88.3829 17.1808H85.1129V22.4308ZM85.1129 31.0708H88.8029C90.3029 31.0708 91.4429 29.9008 91.4429 28.3408C91.4429 26.8408 90.3029 25.7308 88.8029 25.7308H85.1129V31.0708ZM98.5097 28.7608V21.4108C98.5097 21.0208 98.8097 20.7508 99.1697 20.7508H101.6C101.96 20.7508 102.26 21.0208 102.26 21.4108V28.7608C102.26 30.5908 102.89 31.5208 104.6 31.5208C106.13 31.5208 106.85 30.1408 107.06 28.9408V21.4108C107.06 20.8708 107.24 20.7508 107.81 20.7508H110.15C110.51 20.7508 110.81 21.0208 110.81 21.4108V33.9508C110.81 34.3108 110.51 34.6108 110.15 34.6108H109.07C108.74 34.6108 108.5 34.3708 108.41 34.1008L108.02 32.9308C107.3 33.6808 105.86 34.9408 103.73 34.9408C99.4397 34.9408 98.5097 32.2708 98.5097 28.7608ZM118.766 34.9408C116.456 34.9408 115.016 34.2208 114.236 33.6808C114.056 33.5608 113.906 33.2308 114.056 32.9308L114.956 31.1308C115.106 30.8008 115.436 30.6808 115.766 30.8908C116.396 31.2808 117.386 31.7908 118.826 31.7908C119.876 31.7908 120.356 31.4008 120.356 30.8008C120.356 30.1708 119.576 29.6008 117.746 28.8808C115.076 27.8608 113.876 26.6008 113.876 24.5008C113.876 22.4008 115.466 20.4508 118.856 20.4508C120.896 20.4508 122.216 20.9908 122.966 21.4708C123.266 21.7108 123.446 22.0708 123.266 22.4308L122.486 24.0208C122.276 24.3508 121.916 24.4108 121.616 24.2908C120.956 23.9908 119.996 23.6008 118.856 23.6008C117.926 23.6008 117.536 24.0508 117.536 24.5008C117.536 25.1308 118.226 25.4608 119.516 26.0008C122.186 27.0808 124.106 28.0408 124.106 30.8008C124.106 32.9908 122.246 34.9408 118.766 34.9408ZM127.048 33.9508V21.4108C127.048 21.0208 127.378 20.7508 127.708 20.7508H130.138C130.468 20.7508 130.798 21.0208 130.798 21.4108V33.9508C130.798 34.3108 130.468 34.6108 130.138 34.6108H127.708C127.378 34.6108 127.048 34.3108 127.048 33.9508ZM128.878 18.3808C127.528 18.3808 126.508 17.3008 126.508 15.9808C126.508 14.6608 127.528 13.6108 128.878 13.6108C130.228 13.6108 131.278 14.6608 131.278 15.9808C131.278 17.3008 130.228 18.3808 128.878 18.3808ZM134.636 33.9508V21.4108C134.636 21.0208 134.966 20.7508 135.296 20.7508H136.436C136.766 20.7508 136.916 20.9008 137.006 21.1708L137.516 22.4608C138.026 21.8908 139.316 20.4508 141.986 20.4508C146.396 20.4508 147.536 23.4208 147.536 26.7808V33.9508C147.536 34.3108 147.206 34.6108 146.876 34.6108H144.446C144.086 34.6108 143.786 34.3108 143.786 33.9508V26.7808C143.786 24.9808 143.066 23.8708 141.386 23.8708C139.586 23.8708 138.716 25.0708 138.386 26.0308V33.9508C138.386 34.4608 138.176 34.6108 137.516 34.6108H135.296C134.966 34.6108 134.636 34.3108 134.636 33.9508ZM150.378 27.6808C150.378 23.7808 153.258 20.4508 157.368 20.4508C160.968 20.4508 163.728 23.1208 163.728 26.8708C163.728 27.0808 163.698 27.5608 163.668 27.7708C163.638 28.1308 163.308 28.4008 163.008 28.4008H154.128C154.158 30.1108 155.568 31.6108 157.578 31.6108C158.958 31.6108 159.918 31.1008 160.548 30.5908C160.878 30.3208 161.238 30.2908 161.448 30.5908L162.618 32.1508C162.858 32.4208 162.888 32.7508 162.558 33.0508C161.358 34.0708 159.648 34.9408 157.398 34.9408C153.258 34.9408 150.378 31.6408 150.378 27.6808ZM154.338 25.9408H159.948C159.888 24.5908 158.808 23.5408 157.278 23.5408C155.598 23.5408 154.518 24.5608 154.338 25.9408ZM170.651 34.9408C168.341 34.9408 166.901 34.2208 166.121 33.6808C165.941 33.5608 165.791 33.2308 165.941 32.9308L166.841 31.1308C166.991 30.8008 167.321 30.6808 167.651 30.8908C168.281 31.2808 169.271 31.7908 170.711 31.7908C171.761 31.7908 172.241 31.4008 172.241 30.8008C172.241 30.1708 171.461 29.6008 169.631 28.8808C166.961 27.8608 165.761 26.6008 165.761 24.5008C165.761 22.4008 167.351 20.4508 170.741 20.4508C172.781 20.4508 174.101 20.9908 174.851 21.4708C175.151 21.7108 175.331 22.0708 175.151 22.4308L174.371 24.0208C174.161 24.3508 173.801 24.4108 173.501 24.2908C172.841 23.9908 171.881 23.6008 170.741 23.6008C169.811 23.6008 169.421 24.0508 169.421 24.5008C169.421 25.1308 170.111 25.4608 171.401 26.0008C174.071 27.0808 175.991 28.0408 175.991 30.8008C175.991 32.9908 174.131 34.9408 170.651 34.9408ZM183.043 34.9408C180.733 34.9408 179.293 34.2208 178.513 33.6808C178.333 33.5608 178.183 33.2308 178.333 32.9308L179.233 31.1308C179.383 30.8008 179.713 30.6808 180.043 30.8908C180.673 31.2808 181.663 31.7908 183.103 31.7908C184.153 31.7908 184.633 31.4008 184.633 30.8008C184.633 30.1708 183.853 29.6008 182.023 28.8808C179.353 27.8608 178.153 26.6008 178.153 24.5008C178.153 22.4008 179.743 20.4508 183.133 20.4508C185.173 20.4508 186.493 20.9908 187.243 21.4708C187.543 21.7108 187.723 22.0708 187.543 22.4308L186.763 24.0208C186.553 24.3508 186.193 24.4108 185.893 24.2908C185.233 23.9908 184.273 23.6008 183.133 23.6008C182.203 23.6008 181.813 24.0508 181.813 24.5008C181.813 25.1308 182.503 25.4608 183.793 26.0008C186.463 27.0808 188.383 28.0408 188.383 30.8008C188.383 32.9908 186.523 34.9408 183.043 34.9408Z" fill="#000924"/>
</g>
<defs>
<clipPath id="clip0_683_2">
<rect width="206" height="49" fill="white"/>
</clipPath>
<clipPath id="clip1_683_2">
<rect width="34.6177" height="32.3098" fill="white" transform="translate(6.81836 8.1123)"/>
</clipPath>
</defs>
</svg>
