<svg width="171" height="34" viewBox="0 0 171 34" fill="none" xmlns="http://www.w3.org/2000/svg">
<mask id="mask0_1461_384" style="mask-type:luminance" maskUnits="userSpaceOnUse" x="0" y="4" width="32" height="30">
<path d="M0.877441 4.90527H31.674V33.124H0.877441V4.90527Z" fill="white"/>
</mask>
<g mask="url(#mask0_1461_384)">
<path fill-rule="evenodd" clip-rule="evenodd" d="M20.8297 31.0793C22.5884 32.7921 25.6016 33.4395 28.1795 32.0532C30.0985 31.0163 31.7999 28.8853 31.5937 25.8606C31.4504 23.8155 27.9159 17.9839 25.9167 14.7014C24.4101 12.2267 23.1498 9.53429 21.0188 7.50639C16.5906 3.29591 11.1142 5.74773 9.30966 10.3134C10.8277 9.49419 11.9562 8.94425 14.6544 9.40826C19.5867 10.2561 22.1015 16.9699 24.3986 20.9684C24.9543 21.9366 25.4985 22.8932 26.0885 23.9014C26.4609 24.5373 26.8791 25.282 27.0567 25.9924C27.5379 27.9515 25.6016 28.9998 23.9518 27.6135C21.7807 25.7861 19.5924 20.7794 18.5441 18.9119C16.8427 15.8758 14.7976 12.7251 10.4153 13.4641C6.03294 14.2088 4.26855 18.7801 1.89694 22.9906C-0.852757 27.8713 2.89943 33.4738 8.39882 32.7062C10.0143 32.4828 11.1256 31.7553 11.9963 30.8101C12.5864 30.1685 13.8295 28.3239 14.156 27.499L11.6584 23.1797C11.6183 23.2198 11.5953 23.2541 11.4693 23.4031L9.80804 26.2215C7.92909 29.4352 5.27677 28.6447 5.44863 26.485C5.57466 24.8868 7.13855 22.7271 7.62547 21.9022C9.05761 19.4561 11.223 15.5034 13.8066 19.5478C14.2763 20.2925 14.7976 21.2835 15.147 21.8793C15.4793 22.4464 15.7485 22.9276 16.0751 23.5005C17.5931 25.8835 18.8763 29.1774 20.8297 31.0793Z" fill="#FB5315"/>
</g>
<path d="M39.22 29.3501C38.815 29.3501 38.599 28.9991 38.761 28.6481L47.158 10.4771C47.239 10.3151 47.374 10.1801 47.617 10.1801H47.887C48.157 10.1801 48.265 10.3151 48.346 10.4771L56.662 28.6481C56.824 28.9991 56.608 29.3501 56.203 29.3501H53.854C53.449 29.3501 53.26 29.1881 53.071 28.8101L51.748 25.8941H43.675L42.352 28.8101C42.244 29.0801 42.001 29.3501 41.569 29.3501H39.22ZM44.998 22.8971H50.425L47.725 16.9571H47.644L44.998 22.8971ZM58.3654 28.7561V11.0441C58.3654 10.7471 58.6624 10.4501 58.9594 10.4501H61.1464C61.4434 10.4501 61.7404 10.7471 61.7404 11.0441V28.7561C61.7404 29.0801 61.4434 29.3501 61.1464 29.3501H58.9594C58.6624 29.3501 58.3654 29.0801 58.3654 28.7561ZM65.2472 28.7561V11.0441C65.2472 10.7471 65.5442 10.4501 65.8412 10.4501H68.0282C68.3252 10.4501 68.6222 10.7471 68.6222 11.0441V28.7561C68.6222 29.0801 68.3252 29.3501 68.0282 29.3501H65.8412C65.5442 29.3501 65.2472 29.0801 65.2472 28.7561Z" fill="#525050"/>
<path d="M82.0984 19.6571V19.7921C83.6644 20.3321 85.3384 21.6011 85.3384 24.1391C85.3384 27.1631 82.7464 29.3501 79.4524 29.3501H72.9184C72.6214 29.3501 72.4054 29.1071 72.4054 28.8371V10.9631C72.4054 10.6931 72.6214 10.4501 72.9184 10.4501H79.1014C82.3144 10.4501 84.7984 12.6101 84.7984 15.4451C84.7984 17.4701 83.5024 18.9551 82.0984 19.6571ZM75.8884 18.3881H78.8314C80.2084 18.3881 81.0994 17.3081 81.0994 15.9581C81.0994 14.6081 80.2084 13.6631 78.8314 13.6631H75.8884V18.3881ZM75.8884 26.1641H79.2094C80.5594 26.1641 81.5854 25.1111 81.5854 23.7071C81.5854 22.3571 80.5594 21.3581 79.2094 21.3581H75.8884V26.1641ZM87.9455 24.0851V17.4701C87.9455 17.1191 88.2155 16.8761 88.5395 16.8761H90.7265C91.0505 16.8761 91.3205 17.1191 91.3205 17.4701V24.0851C91.3205 25.7321 91.8875 26.5691 93.4265 26.5691C94.8035 26.5691 95.4515 25.3271 95.6405 24.2471V17.4701C95.6405 16.9841 95.8025 16.8761 96.3155 16.8761H98.4215C98.7455 16.8761 99.0155 17.1191 99.0155 17.4701V28.7561C99.0155 29.0801 98.7455 29.3501 98.4215 29.3501H97.4495C97.1525 29.3501 96.9365 29.1341 96.8555 28.8911L96.5045 27.8381C95.8565 28.5131 94.5605 29.6471 92.6435 29.6471C88.7825 29.6471 87.9455 27.2441 87.9455 24.0851ZM106.176 29.6471C104.097 29.6471 102.801 28.9991 102.099 28.5131C101.937 28.4051 101.802 28.1081 101.937 27.8381L102.747 26.2181C102.882 25.9211 103.179 25.8131 103.476 26.0021C104.043 26.3531 104.934 26.8121 106.23 26.8121C107.175 26.8121 107.607 26.4611 107.607 25.9211C107.607 25.3541 106.905 24.8411 105.258 24.1931C102.855 23.2751 101.775 22.1411 101.775 20.2511C101.775 18.3611 103.206 16.6061 106.257 16.6061C108.093 16.6061 109.281 17.0921 109.956 17.5241C110.226 17.7401 110.388 18.0641 110.226 18.3881L109.524 19.8191C109.335 20.1161 109.011 20.1701 108.741 20.0621C108.147 19.7921 107.283 19.4411 106.257 19.4411C105.42 19.4411 105.069 19.8461 105.069 20.2511C105.069 20.8181 105.69 21.1151 106.851 21.6011C109.254 22.5731 110.982 23.4371 110.982 25.9211C110.982 27.8921 109.308 29.6471 106.176 29.6471ZM113.63 28.7561V17.4701C113.63 17.1191 113.927 16.8761 114.224 16.8761H116.411C116.708 16.8761 117.005 17.1191 117.005 17.4701V28.7561C117.005 29.0801 116.708 29.3501 116.411 29.3501H114.224C113.927 29.3501 113.63 29.0801 113.63 28.7561ZM115.277 14.7431C114.062 14.7431 113.144 13.7711 113.144 12.5831C113.144 11.3951 114.062 10.4501 115.277 10.4501C116.492 10.4501 117.437 11.3951 117.437 12.5831C117.437 13.7711 116.492 14.7431 115.277 14.7431ZM120.459 28.7561V17.4701C120.459 17.1191 120.756 16.8761 121.053 16.8761H122.079C122.376 16.8761 122.511 17.0111 122.592 17.2541L123.051 18.4151C123.51 17.9021 124.671 16.6061 127.074 16.6061C131.043 16.6061 132.069 19.2791 132.069 22.3031V28.7561C132.069 29.0801 131.772 29.3501 131.475 29.3501H129.288C128.964 29.3501 128.694 29.0801 128.694 28.7561V22.3031C128.694 20.6831 128.046 19.6841 126.534 19.6841C124.914 19.6841 124.131 20.7641 123.834 21.6281V28.7561C123.834 29.2151 123.645 29.3501 123.051 29.3501H121.053C120.756 29.3501 120.459 29.0801 120.459 28.7561ZM134.627 23.1131C134.627 19.6031 137.219 16.6061 140.918 16.6061C144.158 16.6061 146.642 19.0091 146.642 22.3841C146.642 22.5731 146.615 23.0051 146.588 23.1941C146.561 23.5181 146.264 23.7611 145.994 23.7611H138.002C138.029 25.3001 139.298 26.6501 141.107 26.6501C142.349 26.6501 143.213 26.1911 143.78 25.7321C144.077 25.4891 144.401 25.4621 144.59 25.7321L145.643 27.1361C145.859 27.3791 145.886 27.6761 145.589 27.9461C144.509 28.8641 142.97 29.6471 140.945 29.6471C137.219 29.6471 134.627 26.6771 134.627 23.1131ZM138.191 21.5471H143.24C143.186 20.3321 142.214 19.3871 140.837 19.3871C139.325 19.3871 138.353 20.3051 138.191 21.5471ZM152.872 29.6471C150.793 29.6471 149.497 28.9991 148.795 28.5131C148.633 28.4051 148.498 28.1081 148.633 27.8381L149.443 26.2181C149.578 25.9211 149.875 25.8131 150.172 26.0021C150.739 26.3531 151.63 26.8121 152.926 26.8121C153.871 26.8121 154.303 26.4611 154.303 25.9211C154.303 25.3541 153.601 24.8411 151.954 24.1931C149.551 23.2751 148.471 22.1411 148.471 20.2511C148.471 18.3611 149.902 16.6061 152.953 16.6061C154.789 16.6061 155.977 17.0921 156.652 17.5241C156.922 17.7401 157.084 18.0641 156.922 18.3881L156.22 19.8191C156.031 20.1161 155.707 20.1701 155.437 20.0621C154.843 19.7921 153.979 19.4411 152.953 19.4411C152.116 19.4411 151.765 19.8461 151.765 20.2511C151.765 20.8181 152.386 21.1151 153.547 21.6011C155.95 22.5731 157.678 23.4371 157.678 25.9211C157.678 27.8921 156.004 29.6471 152.872 29.6471ZM164.026 29.6471C161.947 29.6471 160.651 28.9991 159.949 28.5131C159.787 28.4051 159.652 28.1081 159.787 27.8381L160.597 26.2181C160.732 25.9211 161.029 25.8131 161.326 26.0021C161.893 26.3531 162.784 26.8121 164.08 26.8121C165.025 26.8121 165.457 26.4611 165.457 25.9211C165.457 25.3541 164.755 24.8411 163.108 24.1931C160.705 23.2751 159.625 22.1411 159.625 20.2511C159.625 18.3611 161.056 16.6061 164.107 16.6061C165.943 16.6061 167.131 17.0921 167.806 17.5241C168.076 17.7401 168.238 18.0641 168.076 18.3881L167.374 19.8191C167.185 20.1161 166.861 20.1701 166.591 20.0621C165.997 19.7921 165.133 19.4411 164.107 19.4411C163.27 19.4411 162.919 19.8461 162.919 20.2511C162.919 20.8181 163.54 21.1151 164.701 21.6011C167.104 22.5731 168.832 23.4371 168.832 25.9211C168.832 27.8921 167.158 29.6471 164.026 29.6471Z" fill="#0E0E0E"/>
</svg>
