<svg width="190" height="32" viewBox="0 0 190 32" fill="none" xmlns="http://www.w3.org/2000/svg">
<g clip-path="url(#clip0_1587_22)">
<mask id="mask0_1587_22" style="mask-type:luminance" maskUnits="userSpaceOnUse" x="3" y="1" width="32" height="30">
<path d="M3.69336 1.7627H34.8709V30.802H3.69336V1.7627Z" fill="white"/>
</mask>
<g mask="url(#mask0_1587_22)">
<path fill-rule="evenodd" clip-rule="evenodd" d="M23.8918 28.6977C25.6722 30.4603 28.7227 31.1265 31.3324 29.6999C33.2752 28.6329 34.9976 26.4399 34.7888 23.3273C34.6439 21.2227 31.0656 15.2215 29.0416 11.8436C27.5164 9.29691 26.2405 6.5262 24.0832 4.43934C19.6002 0.106432 14.056 2.62954 12.2292 7.32794C13.766 6.48494 14.9085 5.91901 17.64 6.39651C22.6333 7.26899 25.1792 14.1781 27.5048 18.2928C28.0673 19.2891 28.6183 20.2736 29.2156 21.3111C29.5926 21.9655 30.0159 22.7319 30.1957 23.4628C30.6829 25.479 28.7227 26.5578 27.0524 25.1312C24.8545 23.2506 22.6391 18.0983 21.5778 16.1765C19.8554 13.0521 17.785 9.80978 13.3485 10.5702C8.91193 11.3366 7.12572 16.0409 4.72477 20.3738C1.94106 25.3964 5.73966 31.1619 11.3071 30.3719C12.9425 30.142 14.0676 29.3933 14.9491 28.4206C15.5464 27.7604 16.8049 25.8622 17.1355 25.0133L14.6069 20.5684C14.5663 20.6096 14.5431 20.645 14.4156 20.7983L12.7337 23.6987C10.8315 27.0058 8.14641 26.1923 8.32039 23.9698C8.44798 22.3251 10.0312 20.1026 10.5242 19.2537C11.974 16.7365 14.1662 12.6689 16.7817 16.8309C17.2573 17.5972 17.785 18.6171 18.1388 19.2302C18.4751 19.8138 18.7477 20.309 19.0783 20.8985C20.6151 23.3508 21.9142 26.7405 23.8918 28.6977Z" fill="#FB5315"/>
</g>
<path d="M42.153 27.6787C41.703 27.6787 41.463 27.2887 41.643 26.8987L50.973 6.70871C51.063 6.52871 51.213 6.37871 51.483 6.37871H51.783C52.083 6.37871 52.203 6.52871 52.293 6.70871L61.533 26.8987C61.713 27.2887 61.473 27.6787 61.023 27.6787H58.413C57.963 27.6787 57.753 27.4987 57.543 27.0787L56.073 23.8387H47.103L45.633 27.0787C45.513 27.3787 45.243 27.6787 44.763 27.6787H42.153ZM48.573 20.5087H54.603L51.603 13.9087H51.513L48.573 20.5087ZM63.4256 27.0187V7.33871C63.4256 7.00871 63.7556 6.67871 64.0856 6.67871H66.5156C66.8456 6.67871 67.1756 7.00871 67.1756 7.33871V27.0187C67.1756 27.3787 66.8456 27.6787 66.5156 27.6787H64.0856C63.7556 27.6787 63.4256 27.3787 63.4256 27.0187ZM71.0721 27.0187V7.33871C71.0721 7.00871 71.4021 6.67871 71.7321 6.67871H74.1621C74.4921 6.67871 74.8221 7.00871 74.8221 7.33871V27.0187C74.8221 27.3787 74.4921 27.6787 74.1621 27.6787H71.7321C71.4021 27.6787 71.0721 27.3787 71.0721 27.0187ZM89.7956 16.9087V17.0587C91.5356 17.6587 93.3956 19.0687 93.3956 21.8887C93.3956 25.2487 90.5156 27.6787 86.8556 27.6787H79.5956C79.2656 27.6787 79.0256 27.4087 79.0256 27.1087V7.24871C79.0256 6.94871 79.2656 6.67871 79.5956 6.67871H86.4656C90.0356 6.67871 92.7956 9.07871 92.7956 12.2287C92.7956 14.4787 91.3556 16.1287 89.7956 16.9087ZM82.8956 15.4987H86.1656C87.6956 15.4987 88.6856 14.2987 88.6856 12.7987C88.6856 11.2987 87.6956 10.2487 86.1656 10.2487H82.8956V15.4987ZM82.8956 24.1387H86.5856C88.0856 24.1387 89.2256 22.9687 89.2256 21.4087C89.2256 19.9087 88.0856 18.7987 86.5856 18.7987H82.8956V24.1387ZM96.2925 21.8287V14.4787C96.2925 14.0887 96.5925 13.8187 96.9525 13.8187H99.3825C99.7425 13.8187 100.042 14.0887 100.042 14.4787V21.8287C100.042 23.6587 100.672 24.5887 102.382 24.5887C103.912 24.5887 104.632 23.2087 104.842 22.0087V14.4787C104.842 13.9387 105.022 13.8187 105.592 13.8187H107.932C108.292 13.8187 108.592 14.0887 108.592 14.4787V27.0187C108.592 27.3787 108.292 27.6787 107.932 27.6787H106.852C106.522 27.6787 106.282 27.4387 106.192 27.1687L105.802 25.9987C105.082 26.7487 103.642 28.0087 101.512 28.0087C97.2225 28.0087 96.2925 25.3387 96.2925 21.8287ZM116.549 28.0087C114.239 28.0087 112.799 27.2887 112.019 26.7487C111.839 26.6287 111.689 26.2987 111.839 25.9987L112.739 24.1987C112.889 23.8687 113.219 23.7487 113.549 23.9587C114.179 24.3487 115.169 24.8587 116.609 24.8587C117.659 24.8587 118.139 24.4687 118.139 23.8687C118.139 23.2387 117.359 22.6687 115.529 21.9487C112.859 20.9287 111.659 19.6687 111.659 17.5687C111.659 15.4687 113.249 13.5187 116.639 13.5187C118.679 13.5187 119.999 14.0587 120.749 14.5387C121.049 14.7787 121.229 15.1387 121.049 15.4987L120.269 17.0887C120.059 17.4187 119.699 17.4787 119.399 17.3587C118.739 17.0587 117.779 16.6687 116.639 16.6687C115.709 16.6687 115.319 17.1187 115.319 17.5687C115.319 18.1987 116.009 18.5287 117.299 19.0687C119.969 20.1487 121.889 21.1087 121.889 23.8687C121.889 26.0587 120.029 28.0087 116.549 28.0087ZM124.831 27.0187V14.4787C124.831 14.0887 125.161 13.8187 125.491 13.8187H127.921C128.251 13.8187 128.581 14.0887 128.581 14.4787V27.0187C128.581 27.3787 128.251 27.6787 127.921 27.6787H125.491C125.161 27.6787 124.831 27.3787 124.831 27.0187ZM126.661 11.4487C125.311 11.4487 124.291 10.3687 124.291 9.04871C124.291 7.72871 125.311 6.67871 126.661 6.67871C128.011 6.67871 129.061 7.72871 129.061 9.04871C129.061 10.3687 128.011 11.4487 126.661 11.4487ZM132.419 27.0187V14.4787C132.419 14.0887 132.749 13.8187 133.079 13.8187H134.219C134.549 13.8187 134.699 13.9687 134.789 14.2387L135.299 15.5287C135.809 14.9587 137.099 13.5187 139.769 13.5187C144.179 13.5187 145.319 16.4887 145.319 19.8487V27.0187C145.319 27.3787 144.989 27.6787 144.659 27.6787H142.229C141.869 27.6787 141.569 27.3787 141.569 27.0187V19.8487C141.569 18.0487 140.849 16.9387 139.169 16.9387C137.369 16.9387 136.499 18.1387 136.169 19.0987V27.0187C136.169 27.5287 135.959 27.6787 135.299 27.6787H133.079C132.749 27.6787 132.419 27.3787 132.419 27.0187ZM148.161 20.7487C148.161 16.8487 151.041 13.5187 155.151 13.5187C158.751 13.5187 161.511 16.1887 161.511 19.9387C161.511 20.1487 161.481 20.6287 161.451 20.8387C161.421 21.1987 161.091 21.4687 160.791 21.4687H151.911C151.941 23.1787 153.351 24.6787 155.361 24.6787C156.741 24.6787 157.701 24.1687 158.331 23.6587C158.661 23.3887 159.021 23.3587 159.231 23.6587L160.401 25.2187C160.641 25.4887 160.671 25.8187 160.341 26.1187C159.141 27.1387 157.431 28.0087 155.181 28.0087C151.041 28.0087 148.161 24.7087 148.161 20.7487ZM152.121 19.0087H157.731C157.671 17.6587 156.591 16.6087 155.061 16.6087C153.381 16.6087 152.301 17.6287 152.121 19.0087ZM168.433 28.0087C166.123 28.0087 164.683 27.2887 163.903 26.7487C163.723 26.6287 163.573 26.2987 163.723 25.9987L164.623 24.1987C164.773 23.8687 165.103 23.7487 165.433 23.9587C166.063 24.3487 167.053 24.8587 168.493 24.8587C169.543 24.8587 170.023 24.4687 170.023 23.8687C170.023 23.2387 169.243 22.6687 167.413 21.9487C164.743 20.9287 163.543 19.6687 163.543 17.5687C163.543 15.4687 165.133 13.5187 168.523 13.5187C170.563 13.5187 171.883 14.0587 172.633 14.5387C172.933 14.7787 173.113 15.1387 172.933 15.4987L172.153 17.0887C171.943 17.4187 171.583 17.4787 171.283 17.3587C170.623 17.0587 169.663 16.6687 168.523 16.6687C167.593 16.6687 167.203 17.1187 167.203 17.5687C167.203 18.1987 167.893 18.5287 169.183 19.0687C171.853 20.1487 173.773 21.1087 173.773 23.8687C173.773 26.0587 171.913 28.0087 168.433 28.0087ZM180.826 28.0087C178.516 28.0087 177.076 27.2887 176.296 26.7487C176.116 26.6287 175.966 26.2987 176.116 25.9987L177.016 24.1987C177.166 23.8687 177.496 23.7487 177.826 23.9587C178.456 24.3487 179.446 24.8587 180.886 24.8587C181.936 24.8587 182.416 24.4687 182.416 23.8687C182.416 23.2387 181.636 22.6687 179.806 21.9487C177.136 20.9287 175.936 19.6687 175.936 17.5687C175.936 15.4687 177.526 13.5187 180.916 13.5187C182.956 13.5187 184.276 14.0587 185.026 14.5387C185.326 14.7787 185.506 15.1387 185.326 15.4987L184.546 17.0887C184.336 17.4187 183.976 17.4787 183.676 17.3587C183.016 17.0587 182.056 16.6687 180.916 16.6687C179.986 16.6687 179.596 17.1187 179.596 17.5687C179.596 18.1987 180.286 18.5287 181.576 19.0687C184.246 20.1487 186.166 21.1087 186.166 23.8687C186.166 26.0587 184.306 28.0087 180.826 28.0087Z" fill="white"/>
</g>
<defs>
<clipPath id="clip0_1587_22">
<rect width="189" height="31" fill="white" transform="translate(0.727539 0.782227)"/>
</clipPath>
</defs>
</svg>
